<?xml version="1.0" encoding="UTF-8" standalone="no"?>
<!-- Created with Inkscape (http://www.inkscape.org/) -->

<svg
   width="148mm"
   height="105mm"
   viewBox="0 0 148 105"
   version="1.1"
   id="svg1"
   inkscape:version="1.3 (0e150ed6c4, 2023-07-21)"
   sodipodi:docname="light-controls.svg"
   xmlns:inkscape="http://www.inkscape.org/namespaces/inkscape"
   xmlns:sodipodi="http://sodipodi.sourceforge.net/DTD/sodipodi-0.dtd"
   xmlns="http://www.w3.org/2000/svg"
   xmlns:svg="http://www.w3.org/2000/svg">
  <sodipodi:namedview
     id="namedview1"
     pagecolor="#ffffff"
     bordercolor="#000000"
     borderopacity="0.25"
     inkscape:showpageshadow="2"
     inkscape:pageopacity="0.0"
     inkscape:pagecheckerboard="0"
     inkscape:deskcolor="#d1d1d1"
     inkscape:document-units="mm"
     inkscape:zoom="1.8872648"
     inkscape:cx="246.38832"
     inkscape:cy="177.77049"
     inkscape:window-width="1680"
     inkscape:window-height="987"
     inkscape:window-x="-8"
     inkscape:window-y="-8"
     inkscape:window-maximized="1"
     inkscape:current-layer="layer1" />
  <defs
     id="defs1" />
  <g
     inkscape:label="Réteg 1"
     inkscape:groupmode="layer"
     id="layer1">
    <rect
       style="fill:#1c1c1c;fill-opacity:1;stroke:#000000;stroke-width:0.203665"
       id="rect2"
       width="147.66756"
       height="13.496457"
       x="0.24975052"
       y="13.197783" />
    <path
       id="path1"
       style="fill:#0d0909;stroke:#000000;stroke-width:0.151998"
       d="m 62.202637,44.506332 c -3.260747,6.92e-4 -6.224381,1.527075 -7.992839,4.494317 l -0.133057,0.190437 -11.452212,13.993233 c 0,0 -2.500957,4.017895 -5.002001,4.572087 -2.501043,0.554185 -28.3013295,2.90951 -28.3013295,2.90951 l 0.1314056,5.126033 32.2503679,-3.186485 c 0,0 3.685793,-0.277222 8.292982,-1.385593 4.264325,-1.025897 13.926377,-5.762449 15.393457,-6.49244 3.843521,-1.457173 6.406953,-5.408142 6.417171,-9.818797 4.3e-5,-5.745037 -4.299812,-10.40233 -9.603945,-10.402302 z"
       sodipodi:nodetypes="ccccscccsccc" />
    <path
       style="fill:#5f5f5f;fill-opacity:1;stroke:#000000;stroke-width:0.180502"
       d="m 55.277374,37.286318 0.930791,21.748852 c 0,0 1.061377,11.554373 6.329395,15.478926 5.48847,4.088783 16.670669,6.235461 22.8975,4.114637 C 92.22349,76.316647 96.976897,70.595378 97.721533,63.737631 98.466169,56.879883 94.415706,45.916039 90.833662,41.988779 86.365864,37.090382 80.111705,35.651285 76.313292,33.75947 73.527926,32.372214 70.542374,22.983015 69.42543,19.260237 68.308478,15.537459 67.377681,10.05126 67.377681,10.05126 l -13.961894,0.195936 z"
       id="path2"
       sodipodi:nodetypes="ccssssssccc" />
    <ellipse
       style="fill:#d1391f;fill-opacity:1;stroke:#000000;stroke-width:0.144369"
       id="path3"
       cx="81.432663"
       cy="44.633904"
       rx="4.3923383"
       ry="4.623023" />
    <ellipse
       style="fill:#2d2d2d;fill-opacity:1;stroke:#000000;stroke-width:0.170015"
       id="path3-8"
       cx="89.482491"
       cy="59.194431"
       rx="4.2867599"
       ry="6.5692258" />
    <path
       style="fill:#ccbe09;fill-opacity:1;stroke:#000000;stroke-width:0.180502;stroke-linecap:round"
       d="m 73.707074,69.566713 -4.095495,0.04898 -0.02325,-2.449195 -4.560884,4.139143 4.630693,3.747259 v -2.277747 l 4.048946,-0.02446 z"
       id="path4"
       sodipodi:nodetypes="cccccccc" />
    <path
       style="fill:#ccbe09;fill-opacity:1;stroke:#000000;stroke-width:0.180502;stroke-linecap:round"
       d="m 75.869626,69.649466 4.095497,0.04898 0.02324,-2.449196 4.560885,4.139142 -4.630693,3.74726 v -2.277747 l -4.048949,-0.02446 z"
       id="path4-6"
       sodipodi:nodetypes="cccccccc" />
    <path
       style="fill:none;stroke:#ffffff;stroke-width:0.452961;stroke-dasharray:none;stroke-opacity:1"
       d="m 88.227448,57.075827 c -1.675428,1.910368 -1.189112,3.551668 -0.07049,4.540134 1.949048,1.722271 1.890209,-5.3294 0.07049,-4.540134 z"
       id="path5"
       sodipodi:nodetypes="csc" />
    <path
       style="fill:none;stroke:#ffffff;stroke-width:0.390749;stroke-linecap:round;stroke-dasharray:none;stroke-opacity:1"
       d="m 90.333078,57.595159 1.516176,-0.77541"
       id="path6" />
    <path
       style="fill:none;stroke:#ffffff;stroke-width:0.390749;stroke-linecap:round;stroke-dasharray:none;stroke-opacity:1"
       d="m 90.47748,59.005006 1.395847,-0.634431"
       id="path7" />
    <path
       style="fill:none;stroke:#ffffff;stroke-width:0.390749;stroke-linecap:round;stroke-dasharray:none;stroke-opacity:1"
       d="m 90.569615,60.512048 1.371773,-0.704926"
       id="path8"
       sodipodi:nodetypes="cc" />
    <path
       style="fill:none;fill-opacity:1;stroke:#ffffff;stroke-width:0.452961;stroke-linejoin:round;stroke-dasharray:none;stroke-opacity:1"
       d="m 78.593738,46.642242 2.862189,-5.069834 2.722566,5.192291 z"
       id="path9"
       sodipodi:nodetypes="cccc" />
    <path
       style="fill:none;fill-opacity:1;stroke:#ffffff;stroke-width:0.409957;stroke-linecap:round;stroke-dasharray:none;stroke-opacity:1"
       d="m 81.441979,43.289277 -0.06518,1.697327"
       id="path10"
       sodipodi:nodetypes="cc" />
    <ellipse
       style="fill:#ffffff;fill-opacity:1;stroke:none;stroke-width:0.775306;stroke-dasharray:none;stroke-opacity:1"
       id="path11"
       cx="81.377403"
       cy="45.846268"
       rx="0.30541649"
       ry="0.30614948" />
    <path
       style="fill:#ffffff;fill-opacity:1;stroke:#000000;stroke-width:0.665001;stroke-linecap:round;stroke-linejoin:round;stroke-dasharray:none;stroke-opacity:1"
       d="M 59.974966,34.795393 70.482978,33.506674"
       id="path12" />
    <rect
       style="fill:#2d2d2d;fill-opacity:1;stroke:#000000;stroke-width:0.665001;stroke-linecap:round;stroke-linejoin:round;stroke-dasharray:none;stroke-opacity:1"
       id="rect12"
       width="2.7757008"
       height="7.6331778"
       x="59.622314"
       y="37.011623"
       transform="rotate(-5.9797837)" />
  </g>
</svg>
